G04 ================== begin FILE IDENTIFICATION RECORD ==================*
G04 Layout Name:  C:/Cadence/sch/SD_final.brd*
G04 Film Name:    drill*
G04 File Format:  Gerber RS274X*
G04 File Origin:  Cadence Allegro 17.4-S006*
G04 Origin Date:  Wed Jun 16 01:35:35 2021*
G04 *
G04 Layer:  MANUFACTURING/NCLEGEND-1-2*
G04 Layer:  BOARD GEOMETRY/DESIGN_OUTLINE*
G04 *
G04 Offset:    (0.000 0.000)*
G04 Mirror:    No*
G04 Mode:      Positive*
G04 Rotation:  0*
G04 FullContactRelief:  No*
G04 UndefLineWidth:     2.000*
G04 ================== end FILE IDENTIFICATION RECORD ====================*
%FSLAX25Y25*MOIN*%
%IR0*IPPOS*OFA0.00000B0.00000*MIA0B0*SFA1.00000B1.00000*%
%AMMACRO11*
1,1,.002,.0065,0.0*
20,1,.002,.0065,0.0,-.0065,0.0,0.0*
1,1,.002,-.0065,0.0*
1,1,.002,0.0,.0065*
20,1,.002,0.0,.0065,0.0,-.0065,0.0*
1,1,.002,0.0,-.0065*
%
%ADD11MACRO11*%
%AMMACRO10*
1,1,.002,.019685,.019685*
20,1,.002,.019685,.019685,.019685,-.019685,0.0*
1,1,.002,.019685,-.019685*
20,1,.002,.019685,-.019685,-.019685,-.019685,0.0*
1,1,.002,-.019685,-.019685*
20,1,.002,-.019685,-.019685,-.019685,.019685,0.0*
1,1,.002,-.019685,.019685*
20,1,.002,-.019685,.019685,.019685,.019685,0.0*
1,1,.002,.019685,.019685*
%
%ADD10MACRO10*%
%ADD12C,.002*%
G75*
%LPD*%
G75*
G54D10*
X-343050Y-147500D03*
X21260Y9449D03*
X24016Y72441D03*
Y98031D03*
Y109055D03*
X24409Y138976D03*
X36614Y9449D03*
X91732Y31890D03*
Y169685D03*
X100394Y31890D03*
Y169685D03*
X109055Y31890D03*
Y169685D03*
X117716Y31890D03*
Y169685D03*
X144882Y45669D03*
Y157874D03*
X154724Y45669D03*
Y157874D03*
X164567Y45669D03*
Y157874D03*
X174409Y45669D03*
Y157874D03*
X195669Y8661D03*
X216141Y8268D03*
X222441Y97638D03*
X224409Y149212D03*
G54D11*
X-343050Y-122500D03*
X91732Y106686D03*
X95885Y61393D03*
X104902Y94331D03*
X107301Y125753D03*
X117716Y112598D03*
X125011Y129353D03*
X151782Y62992D03*
X151039Y100602D03*
X157123Y97402D03*
X164790Y104883D03*
G54D12*
G01X-388000Y-160000D02*
Y-35000D01*
X108000D01*
Y-160000D01*
X-388000D01*
G01Y-135000D02*
X108000D01*
G01X-388000Y-110000D02*
X108000D01*
G01X-388000Y-85000D02*
X108000D01*
G01X-388000Y-60000D02*
X108000D01*
G01X-376995Y-103750D02*
Y-91250D01*
X-371105D01*
G01X-373275Y-97292D02*
X-376995D01*
G01X-363510Y-91250D02*
X-359790D01*
G01X-361650D02*
Y-103750D01*
G01X-363510D02*
X-359790D01*
G01X-348320Y-97500D02*
X-345220D01*
Y-101250D01*
X-346150Y-102500D01*
X-347235Y-103333D01*
X-348785Y-103750D01*
X-350335Y-103333D01*
X-351420Y-102500D01*
X-352350Y-101250D01*
X-352970Y-99792D01*
X-353280Y-98125D01*
Y-96667D01*
X-352970Y-95417D01*
X-352350Y-93958D01*
X-351420Y-92708D01*
X-350490Y-91875D01*
X-349250Y-91250D01*
X-348165D01*
X-346925Y-91667D01*
X-345995Y-92500D01*
G01X-340260Y-91250D02*
Y-100208D01*
X-339640Y-102084D01*
X-338400Y-103333D01*
X-336850Y-103750D01*
X-335300Y-103333D01*
X-334060Y-102084D01*
X-333440Y-100208D01*
Y-91250D01*
G01X-327550Y-103750D02*
Y-91250D01*
X-323675D01*
X-322435Y-91875D01*
X-321660Y-92708D01*
X-321350Y-94375D01*
X-321660Y-96042D01*
X-322590Y-97083D01*
X-323675Y-97709D01*
X-327550D01*
G01X-323675D02*
X-321350Y-103750D01*
G01X-308950D02*
X-315150D01*
Y-91250D01*
X-308950D01*
G01X-311430Y-97292D02*
X-315150D01*
G01X-298100Y-85000D02*
Y-160000D01*
G01X-298410Y-53750D02*
Y-41250D01*
X-295310D01*
X-294070Y-41875D01*
X-293140Y-42708D01*
X-292365Y-43958D01*
X-291745Y-45417D01*
X-291590Y-47500D01*
X-291745Y-49584D01*
X-292365Y-51042D01*
X-293140Y-52292D01*
X-294070Y-53125D01*
X-295310Y-53750D01*
X-298410D01*
G01X-285700D02*
Y-41250D01*
X-281825D01*
X-280585Y-41875D01*
X-279810Y-42708D01*
X-279500Y-44375D01*
X-279810Y-46042D01*
X-280740Y-47083D01*
X-281825Y-47708D01*
X-285700D01*
G01X-281825D02*
X-279500Y-53750D01*
G01X-272060Y-41250D02*
X-268340D01*
G01X-270200D02*
Y-53750D01*
G01X-272060D02*
X-268340D01*
G01X-260900Y-41250D02*
Y-53750D01*
X-254700D01*
G01X-248500Y-41250D02*
Y-53750D01*
X-242300D01*
G01X-217190Y-42292D02*
X-218120Y-41667D01*
X-219205Y-41250D01*
X-220445D01*
X-221840Y-41875D01*
X-222925Y-42917D01*
X-223700Y-44167D01*
X-224320Y-46250D01*
X-224475Y-48125D01*
X-224165Y-50000D01*
X-223700Y-51250D01*
X-222770Y-52500D01*
X-221685Y-53333D01*
X-220600Y-53750D01*
X-219515D01*
X-218430Y-53333D01*
X-217500Y-52709D01*
X-216725Y-51875D01*
G01X-211455Y-53750D02*
Y-41250D01*
G01X-204945D02*
Y-53750D01*
G01Y-47500D02*
X-211455D01*
G01X-199675Y-53750D02*
X-195800Y-41250D01*
X-191925Y-53750D01*
G01X-193320Y-49375D02*
X-198280D01*
G01X-186500Y-53750D02*
Y-41250D01*
X-182625D01*
X-181385Y-41875D01*
X-180610Y-42708D01*
X-180300Y-44375D01*
X-180610Y-46042D01*
X-181540Y-47083D01*
X-182625Y-47708D01*
X-186500D01*
G01X-182625D02*
X-180300Y-53750D01*
G01X-171000Y-41250D02*
Y-53750D01*
G01X-174565Y-41250D02*
X-167435D01*
G01X-158600Y-54167D02*
X-158910Y-53958D01*
Y-53542D01*
X-158600Y-53333D01*
X-158290Y-53542D01*
Y-53958D01*
X-158600Y-54167D01*
G01Y-48542D02*
X-158910Y-48333D01*
Y-47917D01*
X-158600Y-47708D01*
X-158290Y-47917D01*
Y-48333D01*
X-158600Y-48542D01*
G01X-133800Y-41250D02*
Y-53750D01*
G01X-137365Y-41250D02*
X-130235D01*
G01X-121400Y-53750D02*
X-122640Y-53542D01*
X-123725Y-52709D01*
X-124655Y-51458D01*
X-125275Y-50000D01*
X-125585Y-48333D01*
Y-46667D01*
X-125275Y-45000D01*
X-124655Y-43542D01*
X-123725Y-42292D01*
X-122640Y-41458D01*
X-121400Y-41250D01*
X-120160Y-41458D01*
X-119075Y-42292D01*
X-118145Y-43542D01*
X-117525Y-45000D01*
X-117215Y-46667D01*
Y-48333D01*
X-117525Y-50000D01*
X-118145Y-51458D01*
X-119075Y-52709D01*
X-120160Y-53542D01*
X-121400Y-53750D01*
G01X-112100D02*
Y-41250D01*
X-108380D01*
X-107140Y-41875D01*
X-106210Y-43333D01*
X-105900Y-45000D01*
X-106210Y-46667D01*
X-106985Y-47917D01*
X-108380Y-48542D01*
X-112100D01*
G01X-84200Y-41250D02*
Y-53750D01*
G01X-86370Y-45417D02*
X-82030D01*
G01X-71800Y-53750D02*
X-72730Y-53542D01*
X-73660Y-52709D01*
X-74280Y-51250D01*
X-74590Y-49584D01*
X-74280Y-47917D01*
X-73660Y-46458D01*
X-72730Y-45625D01*
X-71800Y-45417D01*
X-70870Y-45625D01*
X-69940Y-46458D01*
X-69320Y-47917D01*
X-69165Y-49584D01*
X-69320Y-51250D01*
X-69940Y-52709D01*
X-70870Y-53542D01*
X-71800Y-53750D01*
G01X-45760Y-47083D02*
X-45140Y-46458D01*
X-44675Y-45417D01*
X-44365Y-43958D01*
X-44675Y-42708D01*
X-45295Y-41875D01*
X-46380Y-41250D01*
X-50565D01*
Y-53750D01*
X-45450D01*
X-44365Y-52917D01*
X-43745Y-51667D01*
X-43435Y-50208D01*
X-43745Y-48750D01*
X-44675Y-47500D01*
X-45760Y-47083D01*
X-50565D01*
G01X-34600Y-53750D02*
X-35840Y-53542D01*
X-36925Y-52709D01*
X-37855Y-51458D01*
X-38475Y-50000D01*
X-38785Y-48333D01*
Y-46667D01*
X-38475Y-45000D01*
X-37855Y-43542D01*
X-36925Y-42292D01*
X-35840Y-41458D01*
X-34600Y-41250D01*
X-33360Y-41458D01*
X-32275Y-42292D01*
X-31345Y-43542D01*
X-30725Y-45000D01*
X-30415Y-46667D01*
Y-48333D01*
X-30725Y-50000D01*
X-31345Y-51458D01*
X-32275Y-52709D01*
X-33360Y-53542D01*
X-34600Y-53750D01*
G01X-22200Y-41250D02*
Y-53750D01*
G01X-25765Y-41250D02*
X-18635D01*
G01X-9800D02*
Y-53750D01*
G01X-13365Y-41250D02*
X-6235D01*
G01X2600Y-53750D02*
X1360Y-53542D01*
X275Y-52709D01*
X-655Y-51458D01*
X-1275Y-50000D01*
X-1585Y-48333D01*
Y-46667D01*
X-1275Y-45000D01*
X-655Y-43542D01*
X275Y-42292D01*
X1360Y-41458D01*
X2600Y-41250D01*
X3840Y-41458D01*
X4925Y-42292D01*
X5855Y-43542D01*
X6475Y-45000D01*
X6785Y-46667D01*
Y-48333D01*
X6475Y-50000D01*
X5855Y-51458D01*
X4925Y-52709D01*
X3840Y-53542D01*
X2600Y-53750D01*
G01X10970D02*
Y-41250D01*
X15000Y-51667D01*
X19030Y-41250D01*
Y-53750D01*
G01X-274695Y-103750D02*
Y-91250D01*
X-268805D01*
G01X-270975Y-97292D02*
X-274695D01*
G01X-261210Y-91250D02*
X-257490D01*
G01X-259350D02*
Y-103750D01*
G01X-261210D02*
X-257490D01*
G01X-250515D02*
Y-91250D01*
X-243385Y-103750D01*
Y-91250D01*
G01X-236410D02*
X-232690D01*
G01X-234550D02*
Y-103750D01*
G01X-236410D02*
X-232690D01*
G01X-225405Y-102084D02*
X-224165Y-103125D01*
X-222770Y-103750D01*
X-221530D01*
X-220290Y-103125D01*
X-219360Y-102084D01*
X-218895Y-100625D01*
X-219205Y-99167D01*
X-219980Y-97917D01*
X-221375Y-97083D01*
X-223235Y-96667D01*
X-224320Y-95834D01*
X-224785Y-94375D01*
X-224475Y-92917D01*
X-223700Y-91875D01*
X-222615Y-91250D01*
X-221530D01*
X-220445Y-91667D01*
X-219515Y-92708D01*
G01X-213005Y-103750D02*
Y-91250D01*
G01X-206495D02*
Y-103750D01*
G01Y-97500D02*
X-213005D01*
G01X-194250Y-103750D02*
X-200450D01*
Y-91250D01*
X-194250D01*
G01X-196730Y-97292D02*
X-200450D01*
G01X-188360Y-103750D02*
Y-91250D01*
X-185260D01*
X-184020Y-91875D01*
X-183090Y-92708D01*
X-182315Y-93958D01*
X-181695Y-95417D01*
X-181540Y-97500D01*
X-181695Y-99584D01*
X-182315Y-101042D01*
X-183090Y-102292D01*
X-184020Y-103125D01*
X-185260Y-103750D01*
X-188360D01*
G01X-177200Y-107916D02*
X-167900D01*
G01X-163405Y-102084D02*
X-162165Y-103125D01*
X-160770Y-103750D01*
X-159530D01*
X-158290Y-103125D01*
X-157360Y-102084D01*
X-156895Y-100625D01*
X-157205Y-99167D01*
X-157980Y-97917D01*
X-159375Y-97083D01*
X-161235Y-96667D01*
X-162320Y-95834D01*
X-162785Y-94375D01*
X-162475Y-92917D01*
X-161700Y-91875D01*
X-160615Y-91250D01*
X-159530D01*
X-158445Y-91667D01*
X-157515Y-92708D01*
G01X-149610Y-91250D02*
X-145890D01*
G01X-147750D02*
Y-103750D01*
G01X-149610D02*
X-145890D01*
G01X-138295Y-91250D02*
X-132405D01*
X-138295Y-103750D01*
X-132405D01*
G01X-119850D02*
X-126050D01*
Y-91250D01*
X-119850D01*
G01X-122330Y-97292D02*
X-126050D01*
G01X-267875Y-78750D02*
X-264000Y-66250D01*
X-260125Y-78750D01*
G01X-261520Y-74375D02*
X-266480D01*
G01X-254700Y-66250D02*
Y-78750D01*
X-248500D01*
G01X-242300Y-66250D02*
Y-78750D01*
X-236100D01*
G01X-217810Y-66250D02*
Y-75208D01*
X-217190Y-77084D01*
X-215950Y-78333D01*
X-214400Y-78750D01*
X-212850Y-78333D01*
X-211610Y-77084D01*
X-210990Y-75208D01*
Y-66250D01*
G01X-205565Y-78750D02*
Y-66250D01*
X-198435Y-78750D01*
Y-66250D01*
G01X-191460D02*
X-187740D01*
G01X-189600D02*
Y-78750D01*
G01X-191460D02*
X-187740D01*
G01X-177200Y-66250D02*
Y-78750D01*
G01X-180765Y-66250D02*
X-173635D01*
G01X-168055Y-77084D02*
X-166815Y-78125D01*
X-165420Y-78750D01*
X-164180D01*
X-162940Y-78125D01*
X-162010Y-77084D01*
X-161545Y-75625D01*
X-161855Y-74167D01*
X-162630Y-72917D01*
X-164025Y-72083D01*
X-165885Y-71667D01*
X-166970Y-70834D01*
X-167435Y-69375D01*
X-167125Y-67917D01*
X-166350Y-66875D01*
X-165265Y-66250D01*
X-164180D01*
X-163095Y-66667D01*
X-162165Y-67708D01*
G01X-143875Y-78750D02*
X-140000Y-66250D01*
X-136125Y-78750D01*
G01X-137520Y-74375D02*
X-142480D01*
G01X-130700Y-78750D02*
Y-66250D01*
X-126825D01*
X-125585Y-66875D01*
X-124810Y-67708D01*
X-124500Y-69375D01*
X-124810Y-71042D01*
X-125740Y-72083D01*
X-126825Y-72709D01*
X-130700D01*
G01X-126825D02*
X-124500Y-78750D01*
G01X-112100D02*
X-118300D01*
Y-66250D01*
X-112100D01*
G01X-114580Y-72292D02*
X-118300D01*
G01X-92260Y-66250D02*
X-88540D01*
G01X-90400D02*
Y-78750D01*
G01X-92260D02*
X-88540D01*
G01X-81565D02*
Y-66250D01*
X-74435Y-78750D01*
Y-66250D01*
G01X-57230Y-78750D02*
Y-66250D01*
X-53200Y-76667D01*
X-49170Y-66250D01*
Y-78750D01*
G01X-42660Y-66250D02*
X-38940D01*
G01X-40800D02*
Y-78750D01*
G01X-42660D02*
X-38940D01*
G01X-31500Y-66250D02*
Y-78750D01*
X-25300D01*
G01X-19255Y-77084D02*
X-18015Y-78125D01*
X-16620Y-78750D01*
X-15380D01*
X-14140Y-78125D01*
X-13210Y-77084D01*
X-12745Y-75625D01*
X-13055Y-74167D01*
X-13830Y-72917D01*
X-15225Y-72083D01*
X-17085Y-71667D01*
X-18170Y-70834D01*
X-18635Y-69375D01*
X-18325Y-67917D01*
X-17550Y-66875D01*
X-16465Y-66250D01*
X-15380D01*
X-14295Y-66667D01*
X-13365Y-67708D01*
G01X-225560Y-151250D02*
X-224630Y-152709D01*
X-223390Y-153542D01*
X-221995Y-153750D01*
X-220755Y-153542D01*
X-219515Y-152500D01*
X-218740Y-151250D01*
X-218585Y-150000D01*
X-218895Y-148542D01*
X-219980Y-147500D01*
X-221065Y-147083D01*
X-222460D01*
G01X-221065D02*
X-220135Y-146458D01*
X-219360Y-145417D01*
X-219050Y-144167D01*
X-219360Y-142917D01*
X-220135Y-141875D01*
X-221530Y-141250D01*
X-222925Y-141458D01*
X-224320Y-142292D01*
G01X-212385Y-152292D02*
X-211300Y-153333D01*
X-210060Y-153750D01*
X-208820Y-153333D01*
X-207735Y-152084D01*
X-206960Y-150208D01*
X-206650Y-148333D01*
Y-146042D01*
X-206960Y-144167D01*
X-207735Y-142500D01*
X-208665Y-141667D01*
X-209750Y-141250D01*
X-210990Y-141667D01*
X-211920Y-142500D01*
X-212540Y-143750D01*
X-212850Y-145417D01*
X-212540Y-146875D01*
X-211765Y-148333D01*
X-210835Y-149167D01*
X-209750Y-149375D01*
X-208510Y-148959D01*
X-207580Y-147917D01*
X-206650Y-146042D01*
G01X-197350Y-154167D02*
X-197660Y-153958D01*
Y-153542D01*
X-197350Y-153333D01*
X-197040Y-153542D01*
Y-153958D01*
X-197350Y-154167D01*
G01X-188360Y-151250D02*
X-187430Y-152709D01*
X-186190Y-153542D01*
X-184795Y-153750D01*
X-183555Y-153542D01*
X-182315Y-152500D01*
X-181540Y-151250D01*
X-181385Y-150000D01*
X-181695Y-148542D01*
X-182780Y-147500D01*
X-183865Y-147083D01*
X-185260D01*
G01X-183865D02*
X-182935Y-146458D01*
X-182160Y-145417D01*
X-181850Y-144167D01*
X-182160Y-142917D01*
X-182935Y-141875D01*
X-184330Y-141250D01*
X-185725Y-141458D01*
X-187120Y-142292D01*
G01X-172860Y-153750D02*
X-172550Y-151042D01*
X-172085Y-148750D01*
X-171465Y-146667D01*
X-170690Y-144375D01*
X-169450Y-141250D01*
X-175650D01*
G01X-215950Y-128750D02*
Y-116250D01*
X-217810Y-118750D01*
G01Y-128750D02*
X-214090D01*
G01X-206960Y-126250D02*
X-206030Y-127709D01*
X-204790Y-128542D01*
X-203395Y-128750D01*
X-202155Y-128542D01*
X-200915Y-127500D01*
X-200140Y-126250D01*
X-199985Y-125000D01*
X-200295Y-123542D01*
X-201380Y-122500D01*
X-202465Y-122083D01*
X-203860D01*
G01X-202465D02*
X-201535Y-121458D01*
X-200760Y-120417D01*
X-200450Y-119167D01*
X-200760Y-117917D01*
X-201535Y-116875D01*
X-202930Y-116250D01*
X-204325Y-116458D01*
X-205720Y-117292D01*
G01X-191150Y-129167D02*
X-191460Y-128958D01*
Y-128542D01*
X-191150Y-128333D01*
X-190840Y-128542D01*
Y-128958D01*
X-191150Y-129167D01*
G01X-178750Y-116250D02*
X-179990Y-116667D01*
X-180920Y-117708D01*
X-181540Y-118958D01*
X-182005Y-120625D01*
X-182160Y-122500D01*
X-182005Y-124375D01*
X-181540Y-126042D01*
X-180920Y-127292D01*
X-179990Y-128333D01*
X-178750Y-128750D01*
X-177510Y-128333D01*
X-176580Y-127292D01*
X-175960Y-126042D01*
X-175495Y-124375D01*
X-175340Y-122500D01*
X-175495Y-120625D01*
X-175960Y-118958D01*
X-176580Y-117708D01*
X-177510Y-116667D01*
X-178750Y-116250D01*
G01X-96600Y-85000D02*
Y-160000D01*
G01X-67150Y-153750D02*
Y-141250D01*
X-63430D01*
X-62190Y-141875D01*
X-61260Y-143333D01*
X-60950Y-145000D01*
X-61260Y-146667D01*
X-62035Y-147917D01*
X-63430Y-148542D01*
X-67150D01*
G01X-54750Y-141250D02*
Y-153750D01*
X-48550D01*
G01X-43125D02*
X-39250Y-141250D01*
X-35375Y-153750D01*
G01X-36770Y-149375D02*
X-41730D01*
G01X-26850Y-141250D02*
Y-153750D01*
G01X-30415Y-141250D02*
X-23285D01*
G01X-11350Y-153750D02*
X-17550D01*
Y-141250D01*
X-11350D01*
G01X-13830Y-147292D02*
X-17550D01*
G01X-5460Y-153750D02*
Y-141250D01*
X-2360D01*
X-1120Y-141875D01*
X-190Y-142708D01*
X585Y-143958D01*
X1205Y-145417D01*
X1360Y-147500D01*
X1205Y-149584D01*
X585Y-151042D01*
X-190Y-152292D01*
X-1120Y-153125D01*
X-2360Y-153750D01*
X-5460D01*
G01X-67150Y-128750D02*
Y-116250D01*
X-63430D01*
X-62190Y-116875D01*
X-61260Y-118333D01*
X-60950Y-120000D01*
X-61260Y-121667D01*
X-62035Y-122917D01*
X-63430Y-123542D01*
X-67150D01*
G01X-54750Y-116250D02*
Y-128750D01*
X-48550D01*
G01X-43125D02*
X-39250Y-116250D01*
X-35375Y-128750D01*
G01X-36770Y-124375D02*
X-41730D01*
G01X-26850Y-116250D02*
Y-128750D01*
G01X-30415Y-116250D02*
X-23285D01*
G01X-11350Y-128750D02*
X-17550D01*
Y-116250D01*
X-11350D01*
G01X-13830Y-122292D02*
X-17550D01*
G01X-5460Y-128750D02*
Y-116250D01*
X-2360D01*
X-1120Y-116875D01*
X-190Y-117708D01*
X585Y-118958D01*
X1205Y-120417D01*
X1360Y-122500D01*
X1205Y-124584D01*
X585Y-126042D01*
X-190Y-127292D01*
X-1120Y-128125D01*
X-2360Y-128750D01*
X-5460D01*
G01X-67150Y-103750D02*
Y-91250D01*
X-63430D01*
X-62190Y-91875D01*
X-61260Y-93333D01*
X-60950Y-95000D01*
X-61260Y-96667D01*
X-62035Y-97917D01*
X-63430Y-98542D01*
X-67150D01*
G01X-54750Y-91250D02*
Y-103750D01*
X-48550D01*
G01X-43125D02*
X-39250Y-91250D01*
X-35375Y-103750D01*
G01X-36770Y-99375D02*
X-41730D01*
G01X-26850Y-91250D02*
Y-103750D01*
G01X-30415Y-91250D02*
X-23285D01*
G01X-11350Y-103750D02*
X-17550D01*
Y-91250D01*
X-11350D01*
G01X-13830Y-97292D02*
X-17550D01*
G01X-5460Y-103750D02*
Y-91250D01*
X-2360D01*
X-1120Y-91875D01*
X-190Y-92708D01*
X585Y-93958D01*
X1205Y-95417D01*
X1360Y-97500D01*
X1205Y-99584D01*
X585Y-101042D01*
X-190Y-102292D01*
X-1120Y-103125D01*
X-2360Y-103750D01*
X-5460D01*
G01X0Y0D02*
Y196850D01*
X255906D01*
Y0D01*
X0D01*
G01X30500Y-85000D02*
Y-160000D01*
G01X60105Y-143333D02*
X61035Y-142084D01*
X62120Y-141458D01*
X63360Y-141250D01*
X64910Y-141667D01*
X65995Y-142708D01*
X66305Y-143958D01*
X66150Y-145209D01*
X65530Y-146250D01*
X62430Y-148333D01*
X61035Y-149792D01*
X60105Y-151875D01*
X59795Y-153750D01*
X66305D01*
G01X72505Y-148542D02*
X73590Y-147083D01*
X74520Y-146250D01*
X75760Y-145834D01*
X76845Y-146250D01*
X77620Y-147083D01*
X78240Y-148333D01*
X78395Y-149792D01*
X78240Y-151042D01*
X77620Y-152292D01*
X76690Y-153333D01*
X75605Y-153750D01*
X74365Y-153333D01*
X73280Y-152084D01*
X72660Y-150208D01*
X72505Y-148125D01*
X72815Y-145417D01*
X73280Y-143958D01*
X74055Y-142500D01*
X75140Y-141458D01*
X76225Y-141250D01*
X77310Y-141667D01*
X78085Y-142708D01*
G01X63050Y-128750D02*
Y-116250D01*
X61190Y-118750D01*
G01Y-128750D02*
X64910D01*
G01X75450Y-116250D02*
X74210Y-116667D01*
X73280Y-117708D01*
X72660Y-118958D01*
X72195Y-120625D01*
X72040Y-122500D01*
X72195Y-124375D01*
X72660Y-126042D01*
X73280Y-127292D01*
X74210Y-128333D01*
X75450Y-128750D01*
X76690Y-128333D01*
X77620Y-127292D01*
X78240Y-126042D01*
X78705Y-124375D01*
X78860Y-122500D01*
X78705Y-120625D01*
X78240Y-118958D01*
X77620Y-117708D01*
X76690Y-116667D01*
X75450Y-116250D01*
G01X56850Y-103750D02*
X55610Y-103542D01*
X54525Y-102709D01*
X53595Y-101458D01*
X52975Y-100000D01*
X52665Y-98333D01*
Y-96667D01*
X52975Y-95000D01*
X53595Y-93542D01*
X54525Y-92292D01*
X55610Y-91458D01*
X56850Y-91250D01*
X58090Y-91458D01*
X59175Y-92292D01*
X60105Y-93542D01*
X60725Y-95000D01*
X61035Y-96667D01*
Y-98333D01*
X60725Y-100000D01*
X60105Y-101458D01*
X59175Y-102709D01*
X58090Y-103542D01*
X56850Y-103750D01*
G01X58090Y-100417D02*
X59950Y-103750D01*
G01X69250Y-91250D02*
Y-103750D01*
G01X65685Y-91250D02*
X72815D01*
G01X81650Y-103750D02*
Y-98125D01*
X78550Y-91250D01*
G01X84750D02*
X81650Y-98125D01*
M02*
