M48
INCH,LZ
T01C.013
T02C.03937
;LEADER: 12 
;HEADER: 
;CODE  : ASCII 
;FILE  : SD_final-1-2.drl for  ... layers TOP and BOTTOM
;DESIGN: SD_final.brd
;T01 Holesize 1. = 13.000000 Tolerance = +0.000000/-0.000000 PLATED MILS Quantity = 10
;T02 Holesize 2. = 39.370000 Tolerance = +0.000000/-0.000000 PLATED MILS Quantity = 26
%
G90
T01
X00091732Y00106686
X00157123Y00097402
X0016479Y00104883
X00095885Y00061393
X00107301Y00125753
X00125011Y00129353
X00151782Y00062992
X00151039Y00100602
X00104902Y00094331
X00117716Y001125982
T02
X000240157Y000980313
X000212598Y000094488
X000240157Y000724408
Y001090549
X000244094Y001389761
X000366141Y000094488
X002161413Y000082677
X001177163Y000318897
R02X-000086614
X00091732
X001177163Y00169685
R02X-000086614
X00091732
X001956689Y000086614
X002224405Y000976376
X001744091Y000456692
R02X-000098425
X001448815
X001744091Y001578739
R02X-000098425
X001448815
X00224409Y001492123
M30
