G04 ================== begin FILE IDENTIFICATION RECORD ==================*
G04 Layout Name:  C:/Cadence/sch/SD_final.brd*
G04 Film Name:    silksreen_top*
G04 File Format:  Gerber RS274X*
G04 File Origin:  Cadence Allegro 17.4-S006*
G04 Origin Date:  Wed Jun 16 01:35:35 2021*
G04 *
G04 Layer:  REF DES/SILKSCREEN_TOP*
G04 Layer:  PACKAGE GEOMETRY/ASSEMBLY_TOP*
G04 Layer:  PACKAGE GEOMETRY/SILKSCREEN_TOP*
G04 Layer:  BOARD GEOMETRY/SILKSCREEN_TOP*
G04 Layer:  BOARD GEOMETRY/DESIGN_OUTLINE*
G04 *
G04 Offset:    (0.000 0.000)*
G04 Mirror:    No*
G04 Mode:      Positive*
G04 Rotation:  0*
G04 FullContactRelief:  No*
G04 UndefLineWidth:     0.000*
G04 ================== end FILE IDENTIFICATION RECORD ====================*
%FSLAX25Y25*MOIN*%
%IR0*IPPOS*OFA0.00000B0.00000*MIA0B0*SFA1.00000B1.00000*%
%ADD10C,.005*%
%ADD11C,.006*%
%ADD12C,.008*%
%ADD13C,.00394*%
%ADD14C,.00787*%
G75*
%LPD*%
G75*
G54D10*
G01X76982Y117086D02*
X106182D01*
X106682Y116586D01*
Y92936D01*
X105682Y91936D01*
X77782D01*
X76982Y92736D01*
Y117086D01*
G54D11*
G01X19281Y17155D02*
X19473Y16845D01*
X19703Y16639D01*
X19971Y16535D01*
X20278Y16639D01*
X20508Y16845D01*
X20738Y17155D01*
X20814Y17569D01*
Y19635D01*
G01X22304Y17000D02*
X22534Y16742D01*
X22803Y16587D01*
X23148Y16535D01*
X23493Y16639D01*
X23761Y16845D01*
X23953Y17207D01*
X23991Y17620D01*
X23914Y18034D01*
X23723Y18292D01*
X23454Y18499D01*
X23186Y18550D01*
X22918Y18499D01*
X22573Y18292D01*
X22688Y19635D01*
X23723D01*
G01X35816Y17549D02*
X36008Y17239D01*
X36238Y17032D01*
X36506Y16929D01*
X36813Y17032D01*
X37043Y17239D01*
X37273Y17549D01*
X37350Y17962D01*
Y20029D01*
G01X39606Y16929D02*
X39683Y17601D01*
X39798Y18169D01*
X39951Y18686D01*
X40143Y19254D01*
X40450Y20029D01*
X38916D01*
G01X31879Y72273D02*
X32071Y71963D01*
X32301Y71757D01*
X32569Y71653D01*
X32876Y71757D01*
X33106Y71963D01*
X33336Y72273D01*
X33413Y72687D01*
Y74753D01*
G01X35746Y71653D02*
Y74753D01*
X35286Y74133D01*
G01Y71653D02*
X36206D01*
G01X38846Y74753D02*
X38539Y74650D01*
X38309Y74392D01*
X38156Y74082D01*
X38041Y73668D01*
X38003Y73203D01*
X38041Y72738D01*
X38156Y72325D01*
X38309Y72015D01*
X38539Y71757D01*
X38846Y71653D01*
X39153Y71757D01*
X39383Y72015D01*
X39536Y72325D01*
X39651Y72738D01*
X39689Y73203D01*
X39651Y73668D01*
X39536Y74082D01*
X39383Y74392D01*
X39153Y74650D01*
X38846Y74753D01*
G01X32273Y97470D02*
X32465Y97160D01*
X32695Y96954D01*
X32963Y96850D01*
X33270Y96954D01*
X33500Y97160D01*
X33730Y97470D01*
X33806Y97884D01*
Y99950D01*
G01X36600Y96850D02*
Y99950D01*
X35181Y97728D01*
X37098D01*
G01X32273Y110069D02*
X32465Y109758D01*
X32695Y109552D01*
X32963Y109449D01*
X33270Y109552D01*
X33500Y109758D01*
X33730Y110069D01*
X33806Y110482D01*
Y112549D01*
G01X35296Y110069D02*
X35526Y109707D01*
X35833Y109500D01*
X36178Y109449D01*
X36485Y109500D01*
X36791Y109758D01*
X36983Y110069D01*
X37021Y110379D01*
X36945Y110740D01*
X36676Y110999D01*
X36408Y111102D01*
X36063D01*
G01X36408D02*
X36638Y111257D01*
X36830Y111515D01*
X36906Y111825D01*
X36830Y112135D01*
X36638Y112393D01*
X36293Y112549D01*
X35948Y112497D01*
X35603Y112290D01*
G01X32667Y138809D02*
X32858Y138499D01*
X33088Y138292D01*
X33357Y138189D01*
X33663Y138292D01*
X33893Y138499D01*
X34123Y138809D01*
X34200Y139222D01*
Y141289D01*
G01X35805Y140772D02*
X36035Y141082D01*
X36303Y141237D01*
X36610Y141289D01*
X36993Y141185D01*
X37262Y140927D01*
X37338Y140617D01*
X37300Y140307D01*
X37147Y140049D01*
X36380Y139532D01*
X36035Y139170D01*
X35805Y138654D01*
X35728Y138189D01*
X37338D01*
G01X77424Y117586D02*
X78382Y120686D01*
X79340Y117586D01*
G01X78995Y118671D02*
X77769D01*
G01X81482Y117586D02*
Y120686D01*
X81022Y120066D01*
G01Y117586D02*
X81942D01*
G01X86245Y65046D02*
X86015Y65201D01*
X85747Y65305D01*
X85440D01*
X85095Y65150D01*
X84827Y64891D01*
X84635Y64581D01*
X84482Y64065D01*
X84443Y63600D01*
X84520Y63135D01*
X84635Y62825D01*
X84865Y62514D01*
X85134Y62308D01*
X85402Y62205D01*
X85670D01*
X85938Y62308D01*
X86168Y62463D01*
X86360Y62670D01*
G01X88502Y62205D02*
Y65305D01*
X88042Y64685D01*
G01Y62205D02*
X88962D01*
G01X91525D02*
X91602Y62876D01*
X91717Y63445D01*
X91870Y63961D01*
X92062Y64530D01*
X92368Y65305D01*
X90835D01*
G01X116529Y135794D02*
X116298Y135949D01*
X116030Y136053D01*
X115724D01*
X115378Y135897D01*
X115110Y135639D01*
X114918Y135329D01*
X114765Y134812D01*
X114727Y134348D01*
X114804Y133883D01*
X114918Y133572D01*
X115148Y133262D01*
X115417Y133056D01*
X115685Y132952D01*
X115954D01*
X116222Y133056D01*
X116452Y133211D01*
X116644Y133417D01*
G01X118057Y135536D02*
X118287Y135846D01*
X118555Y136001D01*
X118862Y136053D01*
X119245Y135949D01*
X119514Y135691D01*
X119590Y135381D01*
X119552Y135071D01*
X119398Y134812D01*
X118632Y134296D01*
X118287Y133934D01*
X118057Y133417D01*
X117980Y132952D01*
X119590D01*
G01X130733Y65046D02*
X130503Y65201D01*
X130235Y65305D01*
X129928D01*
X129583Y65150D01*
X129315Y64891D01*
X129123Y64581D01*
X128970Y64065D01*
X128932Y63600D01*
X129008Y63135D01*
X129123Y62825D01*
X129353Y62514D01*
X129622Y62308D01*
X129890Y62205D01*
X130158D01*
X130427Y62308D01*
X130657Y62463D01*
X130848Y62670D01*
G01X132990Y62205D02*
Y65305D01*
X132530Y64685D01*
G01Y62205D02*
X133450D01*
G01X135247Y62670D02*
X135477Y62411D01*
X135745Y62256D01*
X136090Y62205D01*
X136435Y62308D01*
X136703Y62514D01*
X136895Y62876D01*
X136933Y63290D01*
X136857Y63703D01*
X136665Y63961D01*
X136396Y64168D01*
X136128Y64220D01*
X135860Y64168D01*
X135515Y63961D01*
X135630Y65305D01*
X136665D01*
G01X137001Y93257D02*
Y91036D01*
X137155Y90571D01*
X137461Y90261D01*
X137845Y90157D01*
X138228Y90261D01*
X138535Y90571D01*
X138688Y91036D01*
Y93257D01*
G01X140945Y90157D02*
Y93257D01*
X140485Y92637D01*
G01Y90157D02*
X141404D01*
G01X144045D02*
X144313Y90209D01*
X144620Y90364D01*
X144811Y90622D01*
X144888Y90984D01*
X144811Y91346D01*
X144581Y91656D01*
X144236Y91811D01*
X143853D01*
X143623Y91914D01*
X143431Y92172D01*
X143355Y92534D01*
X143470Y92896D01*
X143738Y93154D01*
X144045Y93257D01*
X144351Y93154D01*
X144620Y92896D01*
X144735Y92534D01*
X144658Y92172D01*
X144466Y91914D01*
X144236Y91811D01*
X143853D01*
X143508Y91656D01*
X143278Y91346D01*
X143201Y90984D01*
X143278Y90622D01*
X143470Y90364D01*
X143776Y90209D01*
X144045Y90157D01*
G01X140397Y97343D02*
X142279D01*
G01Y109743D02*
X140397D01*
G01X140969Y136700D02*
X140739Y136855D01*
X140471Y136958D01*
X140164D01*
X139819Y136803D01*
X139551Y136545D01*
X139359Y136235D01*
X139206Y135718D01*
X139168Y135253D01*
X139244Y134788D01*
X139359Y134478D01*
X139589Y134168D01*
X139858Y133961D01*
X140126Y133858D01*
X140394D01*
X140663Y133961D01*
X140893Y134116D01*
X141084Y134323D01*
G01X143226Y133858D02*
Y136958D01*
X142766Y136338D01*
G01Y133858D02*
X143686D01*
G01X145598Y135150D02*
X145866Y135511D01*
X146096Y135718D01*
X146403Y135821D01*
X146671Y135718D01*
X146863Y135511D01*
X147016Y135201D01*
X147055Y134840D01*
X147016Y134530D01*
X146863Y134220D01*
X146633Y133961D01*
X146364Y133858D01*
X146058Y133961D01*
X145789Y134271D01*
X145636Y134736D01*
X145598Y135253D01*
X145674Y135925D01*
X145789Y136286D01*
X145981Y136648D01*
X146249Y136906D01*
X146518Y136958D01*
X146786Y136855D01*
X146978Y136596D01*
G01X144988Y102313D02*
Y104773D01*
G01X163354Y142027D02*
Y145127D01*
X164121D01*
X164428Y144972D01*
X164658Y144766D01*
X164849Y144456D01*
X165003Y144094D01*
X165041Y143577D01*
X165003Y143061D01*
X164849Y142699D01*
X164658Y142389D01*
X164428Y142182D01*
X164121Y142027D01*
X163354D01*
G01X167298D02*
Y145127D01*
X166838Y144507D01*
G01Y142027D02*
X167758D01*
G01X181879Y67716D02*
Y70816D01*
X182837D01*
X183144Y70661D01*
X183336Y70455D01*
X183412Y70041D01*
X183336Y69628D01*
X183106Y69370D01*
X182837Y69215D01*
X181879D01*
G01X182837D02*
X183412Y67716D01*
G01X185746D02*
Y70816D01*
X185286Y70196D01*
G01Y67716D02*
X186206D01*
G01X189306D02*
Y70816D01*
X187887Y68595D01*
X189804D01*
G01X195658Y17943D02*
X195850Y17633D01*
X196080Y17426D01*
X196348Y17323D01*
X196655Y17426D01*
X196885Y17633D01*
X197115Y17943D01*
X197192Y18356D01*
Y20423D01*
G01X198797Y18614D02*
X199065Y18976D01*
X199295Y19183D01*
X199602Y19286D01*
X199870Y19183D01*
X200062Y18976D01*
X200215Y18666D01*
X200254Y18304D01*
X200215Y17994D01*
X200062Y17684D01*
X199832Y17426D01*
X199564Y17323D01*
X199257Y17426D01*
X198988Y17736D01*
X198835Y18201D01*
X198797Y18718D01*
X198874Y19389D01*
X198988Y19751D01*
X199180Y20113D01*
X199448Y20371D01*
X199717Y20423D01*
X199985Y20320D01*
X200177Y20061D01*
G01X216918Y19124D02*
X217110Y18814D01*
X217340Y18607D01*
X217608Y18504D01*
X217915Y18607D01*
X218145Y18814D01*
X218375Y19124D01*
X218452Y19537D01*
Y21604D01*
G01X220785Y18504D02*
X221053Y18556D01*
X221360Y18710D01*
X221552Y18969D01*
X221628Y19331D01*
X221552Y19692D01*
X221322Y20002D01*
X220977Y20157D01*
X220593D01*
X220363Y20261D01*
X220172Y20519D01*
X220095Y20881D01*
X220210Y21242D01*
X220478Y21501D01*
X220785Y21604D01*
X221092Y21501D01*
X221360Y21242D01*
X221475Y20881D01*
X221398Y20519D01*
X221207Y20261D01*
X220977Y20157D01*
X220593D01*
X220248Y20002D01*
X220018Y19692D01*
X219942Y19331D01*
X220018Y18969D01*
X220210Y18710D01*
X220517Y18556D01*
X220785Y18504D01*
G01X231879Y97470D02*
X232071Y97160D01*
X232301Y96954D01*
X232569Y96850D01*
X232876Y96954D01*
X233106Y97160D01*
X233336Y97470D01*
X233412Y97884D01*
Y99950D01*
G01X235094Y97212D02*
X235362Y96954D01*
X235669Y96850D01*
X235976Y96954D01*
X236244Y97263D01*
X236436Y97728D01*
X236512Y98194D01*
Y98762D01*
X236436Y99227D01*
X236244Y99640D01*
X236014Y99847D01*
X235746Y99950D01*
X235439Y99847D01*
X235209Y99640D01*
X235056Y99330D01*
X234979Y98917D01*
X235056Y98555D01*
X235247Y98194D01*
X235477Y97987D01*
X235746Y97935D01*
X236052Y98038D01*
X236282Y98297D01*
X236512Y98762D01*
G01X233060Y150620D02*
X233252Y150310D01*
X233482Y150103D01*
X233750Y150000D01*
X234057Y150103D01*
X234287Y150310D01*
X234517Y150620D01*
X234593Y151033D01*
Y153100D01*
G01X236927Y150000D02*
Y153100D01*
X236467Y152480D01*
G01Y150000D02*
X237387D01*
G54D12*
G01X17260Y13449D02*
Y5449D01*
X25260D01*
Y13449D01*
X17260D01*
G01X20016Y76441D02*
Y68441D01*
X28016D01*
Y76441D01*
X20016D01*
G01Y102031D02*
Y94031D01*
X28016D01*
Y102031D01*
X20016D01*
G01Y113055D02*
Y105055D01*
X28016D01*
Y113055D01*
X20016D01*
G01X20409Y142976D02*
Y134976D01*
X28409D01*
Y142976D01*
X20409D01*
G01X32614Y13449D02*
Y5449D01*
X40614D01*
Y13449D01*
X32614D01*
G01X81165Y59542D02*
X73165D01*
G01Y66442D02*
X81165D01*
G01X120535Y124502D02*
X112535D01*
G01Y131403D02*
X120535D01*
G01X147307Y59542D02*
X139307D01*
G01Y66442D02*
X147307D01*
G01X137732Y130615D02*
X145732D01*
G01Y123715D02*
X137732D01*
G01X174866Y65054D02*
X166866D01*
G01Y71954D02*
X174866D01*
G01X191669Y12661D02*
Y4661D01*
X199669D01*
Y12661D01*
X191669D01*
G01X212141Y12268D02*
Y4268D01*
X220141D01*
Y12268D01*
X212141D01*
G01X218441Y101638D02*
Y93638D01*
X226441D01*
Y101638D01*
X218441D01*
G01X220409Y153212D02*
Y145212D01*
X228409D01*
Y153212D01*
X220409D01*
G54D13*
G01X171748Y137845D02*
Y131445D01*
X159748D01*
Y137845D01*
X171748D01*
G54D14*
G01X159748Y131445D02*
X171748D01*
G01X159748Y137845D02*
X171748D01*
G01X168748Y137645D02*
Y131645D01*
G01X168248Y137645D02*
Y131645D01*
M02*
